<mxfile host="app.diagrams.net" agent="Mozilla/5.0 (Windows NT 10.0; Win64; x64) AppleWebKit/537.36 (KHTML, like Gecko) Chrome/138.0.0.0 Safari/537.36" version="28.0.5">
  <diagram name="Page-1" id="tC2rXUZuYFCllDAca9OY">
    <mxGraphModel dx="1426" dy="749" grid="1" gridSize="10" guides="1" tooltips="1" connect="1" arrows="1" fold="1" page="1" pageScale="1" pageWidth="850" pageHeight="1100" math="0" shadow="0">
      <root>
        <mxCell id="0" />
        <mxCell id="1" parent="0" />
        <mxCell id="IDO7crwp-dNiV3ZbpElP-1" value="player 1" style="ellipse;whiteSpace=wrap;html=1;aspect=fixed;" vertex="1" parent="1">
          <mxGeometry x="10" y="20" width="80" height="80" as="geometry" />
        </mxCell>
        <mxCell id="IDO7crwp-dNiV3ZbpElP-2" value="player 2" style="ellipse;whiteSpace=wrap;html=1;aspect=fixed;" vertex="1" parent="1">
          <mxGeometry x="100" y="20" width="80" height="80" as="geometry" />
        </mxCell>
        <mxCell id="IDO7crwp-dNiV3ZbpElP-5" style="edgeStyle=orthogonalEdgeStyle;rounded=0;orthogonalLoop=1;jettySize=auto;html=1;exitX=0.5;exitY=1;exitDx=0;exitDy=0;entryX=0.5;entryY=0;entryDx=0;entryDy=0;" edge="1" parent="1" source="IDO7crwp-dNiV3ZbpElP-3" target="IDO7crwp-dNiV3ZbpElP-4">
          <mxGeometry relative="1" as="geometry" />
        </mxCell>
        <mxCell id="IDO7crwp-dNiV3ZbpElP-3" value="Start" style="rounded=0;whiteSpace=wrap;html=1;" vertex="1" parent="1">
          <mxGeometry x="200" y="180" width="120" height="60" as="geometry" />
        </mxCell>
        <mxCell id="IDO7crwp-dNiV3ZbpElP-4" value="select # of players" style="ellipse;whiteSpace=wrap;html=1;" vertex="1" parent="1">
          <mxGeometry x="200" y="290" width="120" height="80" as="geometry" />
        </mxCell>
        <mxCell id="IDO7crwp-dNiV3ZbpElP-9" style="edgeStyle=orthogonalEdgeStyle;rounded=0;orthogonalLoop=1;jettySize=auto;html=1;exitX=0.5;exitY=0;exitDx=0;exitDy=0;" edge="1" parent="1">
          <mxGeometry relative="1" as="geometry">
            <mxPoint x="260" y="370" as="targetPoint" />
            <mxPoint x="120" y="400" as="sourcePoint" />
          </mxGeometry>
        </mxCell>
        <mxCell id="IDO7crwp-dNiV3ZbpElP-39" style="edgeStyle=orthogonalEdgeStyle;rounded=0;orthogonalLoop=1;jettySize=auto;html=1;exitX=0.5;exitY=1;exitDx=0;exitDy=0;" edge="1" parent="1" source="IDO7crwp-dNiV3ZbpElP-6" target="IDO7crwp-dNiV3ZbpElP-11">
          <mxGeometry relative="1" as="geometry" />
        </mxCell>
        <mxCell id="IDO7crwp-dNiV3ZbpElP-6" value="1 player" style="rounded=0;whiteSpace=wrap;html=1;" vertex="1" parent="1">
          <mxGeometry x="30" y="400" width="120" height="60" as="geometry" />
        </mxCell>
        <mxCell id="IDO7crwp-dNiV3ZbpElP-12" style="edgeStyle=orthogonalEdgeStyle;rounded=0;orthogonalLoop=1;jettySize=auto;html=1;exitX=0.5;exitY=1;exitDx=0;exitDy=0;entryX=0.5;entryY=0;entryDx=0;entryDy=0;" edge="1" parent="1" source="IDO7crwp-dNiV3ZbpElP-7" target="IDO7crwp-dNiV3ZbpElP-11">
          <mxGeometry relative="1" as="geometry">
            <Array as="points">
              <mxPoint x="440" y="490" />
              <mxPoint x="250" y="490" />
            </Array>
          </mxGeometry>
        </mxCell>
        <mxCell id="IDO7crwp-dNiV3ZbpElP-53" style="edgeStyle=orthogonalEdgeStyle;rounded=0;orthogonalLoop=1;jettySize=auto;html=1;exitX=0;exitY=0;exitDx=0;exitDy=0;" edge="1" parent="1" source="IDO7crwp-dNiV3ZbpElP-7">
          <mxGeometry relative="1" as="geometry">
            <mxPoint x="260" y="370" as="targetPoint" />
            <Array as="points">
              <mxPoint x="380" y="400" />
              <mxPoint x="261" y="400" />
            </Array>
          </mxGeometry>
        </mxCell>
        <mxCell id="IDO7crwp-dNiV3ZbpElP-7" value="2 player" style="rounded=0;whiteSpace=wrap;html=1;" vertex="1" parent="1">
          <mxGeometry x="390" y="400" width="120" height="60" as="geometry" />
        </mxCell>
        <mxCell id="IDO7crwp-dNiV3ZbpElP-15" style="edgeStyle=orthogonalEdgeStyle;rounded=0;orthogonalLoop=1;jettySize=auto;html=1;exitX=0.5;exitY=1;exitDx=0;exitDy=0;entryX=0.5;entryY=0;entryDx=0;entryDy=0;" edge="1" parent="1" source="IDO7crwp-dNiV3ZbpElP-11" target="IDO7crwp-dNiV3ZbpElP-14">
          <mxGeometry relative="1" as="geometry" />
        </mxCell>
        <mxCell id="IDO7crwp-dNiV3ZbpElP-35" style="edgeStyle=orthogonalEdgeStyle;rounded=0;orthogonalLoop=1;jettySize=auto;html=1;exitX=1;exitY=0.5;exitDx=0;exitDy=0;entryX=0;entryY=0.5;entryDx=0;entryDy=0;" edge="1" parent="1" source="IDO7crwp-dNiV3ZbpElP-11" target="IDO7crwp-dNiV3ZbpElP-30">
          <mxGeometry relative="1" as="geometry" />
        </mxCell>
        <mxCell id="IDO7crwp-dNiV3ZbpElP-11" value="Rules Screen" style="ellipse;whiteSpace=wrap;html=1;" vertex="1" parent="1">
          <mxGeometry x="190" y="520" width="120" height="80" as="geometry" />
        </mxCell>
        <mxCell id="IDO7crwp-dNiV3ZbpElP-41" style="edgeStyle=orthogonalEdgeStyle;rounded=0;orthogonalLoop=1;jettySize=auto;html=1;exitX=1;exitY=0.5;exitDx=0;exitDy=0;" edge="1" parent="1" source="IDO7crwp-dNiV3ZbpElP-14" target="IDO7crwp-dNiV3ZbpElP-40">
          <mxGeometry relative="1" as="geometry" />
        </mxCell>
        <mxCell id="IDO7crwp-dNiV3ZbpElP-14" value="&quot;Press any key to begin.. ctrl for settings&quot;" style="ellipse;whiteSpace=wrap;html=1;" vertex="1" parent="1">
          <mxGeometry x="190" y="660" width="120" height="80" as="geometry" />
        </mxCell>
        <mxCell id="IDO7crwp-dNiV3ZbpElP-16" value="" style="whiteSpace=wrap;html=1;aspect=fixed;" vertex="1" parent="1">
          <mxGeometry x="540" y="180" width="540" height="540" as="geometry" />
        </mxCell>
        <mxCell id="IDO7crwp-dNiV3ZbpElP-17" value="If player scores 2 == win" style="rounded=0;whiteSpace=wrap;html=1;" vertex="1" parent="1">
          <mxGeometry x="490" y="210" width="120" height="60" as="geometry" />
        </mxCell>
        <mxCell id="IDO7crwp-dNiV3ZbpElP-18" value="3 second timer begins&amp;nbsp;" style="rounded=0;whiteSpace=wrap;html=1;" vertex="1" parent="1">
          <mxGeometry x="740" y="240" width="120" height="60" as="geometry" />
        </mxCell>
        <mxCell id="IDO7crwp-dNiV3ZbpElP-19" value="players select rock paper or scissors" style="rounded=0;whiteSpace=wrap;html=1;" vertex="1" parent="1">
          <mxGeometry x="740" y="310" width="120" height="60" as="geometry" />
        </mxCell>
        <mxCell id="IDO7crwp-dNiV3ZbpElP-20" value="Timer ends" style="rounded=0;whiteSpace=wrap;html=1;" vertex="1" parent="1">
          <mxGeometry x="740" y="380" width="120" height="60" as="geometry" />
        </mxCell>
        <mxCell id="IDO7crwp-dNiV3ZbpElP-21" value="Determine winner" style="rounded=0;whiteSpace=wrap;html=1;" vertex="1" parent="1">
          <mxGeometry x="740" y="450" width="120" height="60" as="geometry" />
        </mxCell>
        <mxCell id="IDO7crwp-dNiV3ZbpElP-23" value="If winner, add point to total" style="rounded=0;whiteSpace=wrap;html=1;" vertex="1" parent="1">
          <mxGeometry x="740" y="520" width="120" height="60" as="geometry" />
        </mxCell>
        <mxCell id="IDO7crwp-dNiV3ZbpElP-29" style="edgeStyle=orthogonalEdgeStyle;rounded=0;orthogonalLoop=1;jettySize=auto;html=1;exitX=0;exitY=0.5;exitDx=0;exitDy=0;entryX=0;entryY=0.5;entryDx=0;entryDy=0;" edge="1" parent="1" source="IDO7crwp-dNiV3ZbpElP-25" target="IDO7crwp-dNiV3ZbpElP-18">
          <mxGeometry relative="1" as="geometry" />
        </mxCell>
        <mxCell id="IDO7crwp-dNiV3ZbpElP-25" value="Adjust score" style="rounded=0;whiteSpace=wrap;html=1;" vertex="1" parent="1">
          <mxGeometry x="740" y="590" width="120" height="60" as="geometry" />
        </mxCell>
        <mxCell id="IDO7crwp-dNiV3ZbpElP-30" value="Game Logic" style="rounded=0;whiteSpace=wrap;html=1;" vertex="1" parent="1">
          <mxGeometry x="350" y="530" width="120" height="60" as="geometry" />
        </mxCell>
        <mxCell id="IDO7crwp-dNiV3ZbpElP-32" value="Gameworld == recess" style="shape=parallelogram;perimeter=parallelogramPerimeter;whiteSpace=wrap;html=1;fixedSize=1;" vertex="1" parent="1">
          <mxGeometry x="200" y="20" width="160" height="80" as="geometry" />
        </mxCell>
        <mxCell id="IDO7crwp-dNiV3ZbpElP-33" value="Hands" style="whiteSpace=wrap;html=1;aspect=fixed;" vertex="1" parent="1">
          <mxGeometry x="390" y="20" width="80" height="80" as="geometry" />
        </mxCell>
        <mxCell id="IDO7crwp-dNiV3ZbpElP-48" value="" style="edgeStyle=orthogonalEdgeStyle;rounded=0;orthogonalLoop=1;jettySize=auto;html=1;" edge="1" parent="1" source="IDO7crwp-dNiV3ZbpElP-34" target="IDO7crwp-dNiV3ZbpElP-47">
          <mxGeometry relative="1" as="geometry" />
        </mxCell>
        <mxCell id="IDO7crwp-dNiV3ZbpElP-34" value="Scorekeeper" style="whiteSpace=wrap;html=1;aspect=fixed;" vertex="1" parent="1">
          <mxGeometry x="490" y="20" width="80" height="80" as="geometry" />
        </mxCell>
        <mxCell id="IDO7crwp-dNiV3ZbpElP-37" value="Set score 0=0" style="whiteSpace=wrap;html=1;aspect=fixed;" vertex="1" parent="1">
          <mxGeometry x="80" y="790" width="80" height="80" as="geometry" />
        </mxCell>
        <mxCell id="IDO7crwp-dNiV3ZbpElP-43" style="edgeStyle=orthogonalEdgeStyle;rounded=0;orthogonalLoop=1;jettySize=auto;html=1;exitX=0;exitY=1;exitDx=0;exitDy=0;entryX=0.5;entryY=0;entryDx=0;entryDy=0;" edge="1" parent="1" source="IDO7crwp-dNiV3ZbpElP-40" target="IDO7crwp-dNiV3ZbpElP-42">
          <mxGeometry relative="1" as="geometry" />
        </mxCell>
        <mxCell id="IDO7crwp-dNiV3ZbpElP-46" style="edgeStyle=orthogonalEdgeStyle;rounded=0;orthogonalLoop=1;jettySize=auto;html=1;exitX=1;exitY=1;exitDx=0;exitDy=0;" edge="1" parent="1" source="IDO7crwp-dNiV3ZbpElP-40">
          <mxGeometry relative="1" as="geometry">
            <mxPoint x="480" y="750" as="targetPoint" />
          </mxGeometry>
        </mxCell>
        <mxCell id="IDO7crwp-dNiV3ZbpElP-40" value="Settings" style="ellipse;whiteSpace=wrap;html=1;aspect=fixed;" vertex="1" parent="1">
          <mxGeometry x="370" y="660" width="80" height="80" as="geometry" />
        </mxCell>
        <mxCell id="IDO7crwp-dNiV3ZbpElP-42" value="Toggle Sound" style="ellipse;whiteSpace=wrap;html=1;" vertex="1" parent="1">
          <mxGeometry x="330" y="760" width="80" height="50" as="geometry" />
        </mxCell>
        <mxCell id="IDO7crwp-dNiV3ZbpElP-44" value="Video settings" style="ellipse;whiteSpace=wrap;html=1;" vertex="1" parent="1">
          <mxGeometry x="450" y="750" width="70" height="50" as="geometry" />
        </mxCell>
        <mxCell id="IDO7crwp-dNiV3ZbpElP-47" value="Scoreboard" style="ellipse;whiteSpace=wrap;html=1;" vertex="1" parent="1">
          <mxGeometry x="650" y="20" width="80" height="80" as="geometry" />
        </mxCell>
        <mxCell id="IDO7crwp-dNiV3ZbpElP-49" style="edgeStyle=orthogonalEdgeStyle;rounded=0;orthogonalLoop=1;jettySize=auto;html=1;exitX=0.5;exitY=1;exitDx=0;exitDy=0;entryX=1.013;entryY=0.613;entryDx=0;entryDy=0;entryPerimeter=0;" edge="1" parent="1" source="IDO7crwp-dNiV3ZbpElP-14" target="IDO7crwp-dNiV3ZbpElP-37">
          <mxGeometry relative="1" as="geometry" />
        </mxCell>
        <mxCell id="IDO7crwp-dNiV3ZbpElP-52" value="If Statement" style="shape=hexagon;perimeter=hexagonPerimeter2;whiteSpace=wrap;html=1;fixedSize=1;" vertex="1" parent="1">
          <mxGeometry x="350" y="270" width="120" height="80" as="geometry" />
        </mxCell>
        <mxCell id="IDO7crwp-dNiV3ZbpElP-54" value="While Loop" style="rounded=1;whiteSpace=wrap;html=1;" vertex="1" parent="1">
          <mxGeometry x="740" y="140" width="120" height="60" as="geometry" />
        </mxCell>
      </root>
    </mxGraphModel>
  </diagram>
</mxfile>
